<?xml version="1.0" encoding="UTF-8"?>
<!DOCTYPE svg PUBLIC "-//W3C//DTD SVG 1.1//EN" "http://www.w3.org/Graphics/SVG/1.1/DTD/svg11.dtd">
<svg xmlns="http://www.w3.org/2000/svg" version="1.1" width="394px" height="404px" style="shape-rendering:geometricPrecision; text-rendering:geometricPrecision; image-rendering:optimizeQuality; fill-rule:evenodd; clip-rule:evenodd" xmlns:xlink="http://www.w3.org/1999/xlink">
<g><path style="opacity:1" fill="#bf6538" d="M 216.5,33.5 C 215.761,33.369 215.094,33.5357 214.5,34C 216.5,34.3333 218.5,34.6667 220.5,35C 212.841,35.4997 205.174,35.6664 197.5,35.5C 192.305,35.8205 187.305,35.4872 182.5,34.5C 188.93,32.975 195.596,32.3083 202.5,32.5C 207.346,32.5008 212.012,32.8341 216.5,33.5 Z"/></g>
<g><path style="opacity:1" fill="#f16b37" d="M 174.5,34.5 C 177.167,34.5 179.833,34.5 182.5,34.5C 187.305,35.4872 192.305,35.8205 197.5,35.5C 197.611,36.1174 197.944,36.6174 198.5,37C 201.5,37.3333 204.5,37.6667 207.5,38C 206.944,38.3826 206.611,38.8826 206.5,39.5C 199.253,39.1122 192.253,39.7789 185.5,41.5C 178.696,41.2578 172.029,42.0912 165.5,44C 167.382,44.1981 169.048,44.6981 170.5,45.5C 169.167,45.5 167.833,45.5 166.5,45.5C 163.15,45.665 159.817,45.4983 156.5,45C 157.406,43.3005 157.739,41.4672 157.5,39.5C 163.474,38.5044 169.474,37.5044 175.5,36.5C 175.137,35.8165 174.804,35.1499 174.5,34.5 Z"/></g>
<g><path style="opacity:1" fill="#cc6d35" d="M 237.5,45.5 C 222.907,43.5062 208.24,42.5062 193.5,42.5C 190.946,41.612 188.279,41.2786 185.5,41.5C 192.253,39.7789 199.253,39.1122 206.5,39.5C 207.822,39.67 208.989,39.3366 210,38.5C 219.735,40.794 229.568,42.794 239.5,44.5C 239.043,45.2975 238.376,45.6309 237.5,45.5 Z"/></g>
<g><path style="opacity:1" fill="#d48041" d="M 232.5,34.5 C 243.55,36.5022 254.216,39.5022 264.5,43.5C 253.688,40.9377 242.688,38.771 231.5,37C 232.252,36.3292 232.586,35.4959 232.5,34.5 Z"/></g>
<g><path style="opacity:1" fill="#9c5232" d="M 185.5,41.5 C 188.279,41.2786 190.946,41.612 193.5,42.5C 185.903,43.2628 178.236,44.2628 170.5,45.5C 169.048,44.6981 167.382,44.1981 165.5,44C 172.029,42.0912 178.696,41.2578 185.5,41.5 Z"/></g>
<g><path style="opacity:1" fill="#ef893a" d="M 216.5,33.5 C 221.822,33.9801 227.155,34.3135 232.5,34.5C 232.586,35.4959 232.252,36.3292 231.5,37C 242.688,38.771 253.688,40.9377 264.5,43.5C 265.167,43.5 265.833,43.5 266.5,43.5C 265.737,44.2679 264.737,44.7679 263.5,45C 266.028,46.0174 266.028,47.1841 263.5,48.5C 266.48,52.044 269.814,52.3773 273.5,49.5C 278.912,50.8211 281.579,54.1544 281.5,59.5C 277.244,59.4586 273.41,58.1253 270,55.5C 269.235,55.5699 268.735,55.9033 268.5,56.5C 258.478,51.8268 248.144,48.1601 237.5,45.5C 238.376,45.6309 239.043,45.2975 239.5,44.5C 229.568,42.794 219.735,40.794 210,38.5C 208.989,39.3366 207.822,39.67 206.5,39.5C 206.611,38.8826 206.944,38.3826 207.5,38C 204.5,37.6667 201.5,37.3333 198.5,37C 197.944,36.6174 197.611,36.1174 197.5,35.5C 205.174,35.6664 212.841,35.4997 220.5,35C 218.5,34.6667 216.5,34.3333 214.5,34C 215.094,33.5357 215.761,33.369 216.5,33.5 Z"/></g>
<g><path style="opacity:1" fill="#dc5c36" d="M 174.5,34.5 C 174.804,35.1499 175.137,35.8165 175.5,36.5C 169.474,37.5044 163.474,38.5044 157.5,39.5C 157.739,41.4672 157.406,43.3005 156.5,45C 159.817,45.4983 163.15,45.665 166.5,45.5C 155.029,48.0682 144.696,53.0682 135.5,60.5C 136.772,56.561 139.439,53.8943 143.5,52.5C 141.433,50.7726 139.767,48.7726 138.5,46.5C 141.248,44.3994 144.248,42.5661 147.5,41C 156.263,37.7736 165.263,35.6069 174.5,34.5 Z"/></g>
<g><path style="opacity:1" fill="#e8993d" d="M 266.5,43.5 C 287.284,51.6207 302.617,65.6207 312.5,85.5C 312.631,86.2389 312.464,86.9056 312,87.5C 310.097,84.8953 308.263,82.2286 306.5,79.5C 305.833,83.3125 305.166,86.9792 304.5,90.5C 295.403,76.0692 283.403,64.7359 268.5,56.5C 268.735,55.9033 269.235,55.5699 270,55.5C 273.41,58.1253 277.244,59.4586 281.5,59.5C 281.579,54.1544 278.912,50.8211 273.5,49.5C 269.814,52.3773 266.48,52.044 263.5,48.5C 266.028,47.1841 266.028,46.0174 263.5,45C 264.737,44.7679 265.737,44.2679 266.5,43.5 Z"/></g>
<g><path style="opacity:1" fill="#e75336" d="M 138.5,46.5 C 139.767,48.7726 141.433,50.7726 143.5,52.5C 139.439,53.8943 136.772,56.561 135.5,60.5C 132.833,62.5 130.5,64.8333 128.5,67.5C 126.007,67.9762 124.007,69.3096 122.5,71.5C 119.952,77.2823 116.952,82.6156 113.5,87.5C 112.057,86.6649 111.057,85.3316 110.5,83.5C 108.714,86.6305 107.381,89.9638 106.5,93.5C 105.817,93.1373 105.15,92.8039 104.5,92.5C 109.288,76.217 117.955,62.3837 130.5,51C 133.059,49.2226 135.726,47.7226 138.5,46.5 Z"/></g>
<g><path style="opacity:1" fill="#e6a03b" d="M 312.5,85.5 C 317.334,94.1679 320.501,103.501 322,113.5C 322.667,125.833 322.667,138.167 322,150.5C 321.79,152.058 321.29,153.391 320.5,154.5C 320.819,139.673 320.486,124.673 319.5,109.5C 315.205,109.721 314.538,108.388 317.5,105.5C 315.744,102.383 314.744,99.05 314.5,95.5C 313.5,95.5 312.5,95.5 311.5,95.5C 311.5,96.8333 311.5,98.1667 311.5,99.5C 309.824,98.8166 309.157,97.4832 309.5,95.5C 308.5,95.5 307.5,95.5 306.5,95.5C 305.559,93.9505 304.893,92.2838 304.5,90.5C 305.166,86.9792 305.833,83.3125 306.5,79.5C 308.263,82.2286 310.097,84.8953 312,87.5C 312.464,86.9056 312.631,86.2389 312.5,85.5 Z"/></g>
<g><path style="opacity:1" fill="#ef4d33" d="M 113.5,87.5 C 112.968,93.6283 111.801,99.6283 110,105.5C 108.506,114.78 107.673,124.113 107.5,133.5C 106.778,133.082 106.278,132.416 106,131.5C 105.818,134.226 105.318,136.893 104.5,139.5C 102.963,125.928 103.296,112.428 105.5,99C 105.333,98.1667 105.167,97.3333 105,96.5C 104.79,98.0581 104.29,99.3915 103.5,100.5C 103.575,97.7938 103.908,95.1272 104.5,92.5C 105.15,92.8039 105.817,93.1373 106.5,93.5C 107.381,89.9638 108.714,86.6305 110.5,83.5C 111.057,85.3316 112.057,86.6649 113.5,87.5 Z"/></g>
<g><path style="opacity:1" fill="#f48237" d="M 239.5,101.5 C 238.745,103.466 237.579,103.8 236,102.5C 232.639,104.121 229.139,105.455 225.5,106.5C 226,107.5 226.5,108.5 227,109.5C 229.522,107.338 232.355,107.005 235.5,108.5C 234.313,109.519 233.313,110.686 232.5,112C 236.213,112.23 236.88,113.397 234.5,115.5C 236.51,116.065 238.176,117.065 239.5,118.5C 238.311,119.429 236.978,119.762 235.5,119.5C 235.5,120.833 235.5,122.167 235.5,123.5C 233.188,125.367 230.521,125.867 227.5,125C 229.991,124.374 229.991,123.541 227.5,122.5C 224.856,121.604 222.19,120.771 219.5,120C 221.321,117.544 221.988,114.711 221.5,111.5C 217.692,111.837 214.026,111.337 210.5,110C 213.623,109.794 216.623,109.127 219.5,108C 217.5,107.667 215.5,107.333 213.5,107C 221.541,102.556 230.208,100.723 239.5,101.5 Z"/></g>
<g><path style="opacity:1" fill="#d29544" d="M 306.5,95.5 C 307.5,95.5 308.5,95.5 309.5,95.5C 309.157,97.4832 309.824,98.8166 311.5,99.5C 314.365,109.075 315.699,118.908 315.5,129C 315.333,134.833 315.167,140.667 315,146.5C 314.667,147.5 314.333,148.5 314,149.5C 313.802,147.618 313.302,145.952 312.5,144.5C 315.23,127.539 313.23,111.205 306.5,95.5 Z"/></g>
<g><path style="opacity:1" fill="#ec7d39" d="M 255.5,91.5 C 255.5,92.5 255.5,93.5 255.5,94.5C 253.901,94.2322 252.568,94.5655 251.5,95.5C 246.863,96.485 242.863,98.485 239.5,101.5C 230.208,100.723 221.541,102.556 213.5,107C 215.5,107.333 217.5,107.667 219.5,108C 216.623,109.127 213.623,109.794 210.5,110C 214.026,111.337 217.692,111.837 221.5,111.5C 221.988,114.711 221.321,117.544 219.5,120C 222.19,120.771 224.856,121.604 227.5,122.5C 229.991,123.541 229.991,124.374 227.5,125C 230.521,125.867 233.188,125.367 235.5,123.5C 236.833,123.5 238.167,123.5 239.5,123.5C 240.167,124.167 240.833,124.833 241.5,125.5C 233.206,127.657 224.873,129.657 216.5,131.5C 212.833,131.5 209.167,131.5 205.5,131.5C 206.726,124.585 208.06,117.751 209.5,111C 207.965,110.504 206.465,110.67 205,111.5C 203.2,110.68 201.366,110.014 199.5,109.5C 200.568,108.566 201.901,108.232 203.5,108.5C 203.5,107.5 203.5,106.5 203.5,105.5C 220.975,101.208 238.308,96.541 255.5,91.5 Z"/></g>
<g><path style="opacity:1" fill="#f38939" d="M 251.5,95.5 C 254.708,97.0739 256.042,99.7406 255.5,103.5C 254.022,103.238 252.689,103.571 251.5,104.5C 250.067,106.122 248.401,107.455 246.5,108.5C 248.167,109.167 249.833,109.833 251.5,110.5C 249.995,111.842 249.328,113.508 249.5,115.5C 248.022,115.238 246.689,115.571 245.5,116.5C 247.975,116.964 249.975,117.964 251.5,119.5C 247.895,121.416 243.895,122.75 239.5,123.5C 238.167,123.5 236.833,123.5 235.5,123.5C 235.5,122.167 235.5,120.833 235.5,119.5C 236.978,119.762 238.311,119.429 239.5,118.5C 238.176,117.065 236.51,116.065 234.5,115.5C 236.88,113.397 236.213,112.23 232.5,112C 233.313,110.686 234.313,109.519 235.5,108.5C 232.355,107.005 229.522,107.338 227,109.5C 226.5,108.5 226,107.5 225.5,106.5C 229.139,105.455 232.639,104.121 236,102.5C 237.579,103.8 238.745,103.466 239.5,101.5C 242.863,98.485 246.863,96.485 251.5,95.5 Z"/></g>
<g><path style="opacity:1" fill="#f79639" d="M 263.5,91.5 C 264.833,91.5 266.167,91.5 267.5,91.5C 267.5,125.833 267.5,160.167 267.5,194.5C 265.586,193.815 263.586,193.315 261.5,193C 262.416,192.722 263.082,192.222 263.5,191.5C 264.812,189.257 265.478,186.59 265.5,183.5C 265.478,180.41 264.812,177.743 263.5,175.5C 263.601,156.985 263.268,138.318 262.5,119.5C 258.165,116.855 258.498,115.522 263.5,115.5C 264.049,108.162 263.382,100.995 261.5,94C 262.056,92.9889 262.722,92.1556 263.5,91.5 Z"/></g>
<g><path style="opacity:1" fill="#f48f3a" d="M 269.5,89.5 C 266.693,89.834 264.693,90.5007 263.5,91.5C 262.722,92.1556 262.056,92.9889 261.5,94C 263.382,100.995 264.049,108.162 263.5,115.5C 258.498,115.522 258.165,116.855 262.5,119.5C 263.268,138.318 263.601,156.985 263.5,175.5C 263.195,177.919 263.195,180.586 263.5,183.5C 262.167,183.5 260.833,183.5 259.5,183.5C 259.5,162.167 259.5,140.833 259.5,119.5C 256.833,119.5 254.167,119.5 251.5,119.5C 249.975,117.964 247.975,116.964 245.5,116.5C 246.689,115.571 248.022,115.238 249.5,115.5C 249.328,113.508 249.995,111.842 251.5,110.5C 249.833,109.833 248.167,109.167 246.5,108.5C 248.401,107.455 250.067,106.122 251.5,104.5C 252.689,103.571 254.022,103.238 255.5,103.5C 256.042,99.7406 254.708,97.0739 251.5,95.5C 252.568,94.5655 253.901,94.2322 255.5,94.5C 255.5,93.5 255.5,92.5 255.5,91.5C 259.482,90.5046 263.482,89.5046 267.5,88.5C 268.416,88.5427 269.083,88.8761 269.5,89.5 Z"/></g>
<g><path style="opacity:1" fill="#c08451" d="M 269.5,89.5 C 270.506,90.3957 270.506,91.0623 269.5,91.5C 268.833,126.5 268.167,161.5 267.5,196.5C 267.5,195.833 267.5,195.167 267.5,194.5C 267.5,160.167 267.5,125.833 267.5,91.5C 266.167,91.5 264.833,91.5 263.5,91.5C 264.693,90.5007 266.693,89.834 269.5,89.5 Z"/></g>
<g><path style="opacity:1" fill="#ad522c" d="M 203.5,105.5 C 203.5,106.5 203.5,107.5 203.5,108.5C 201.901,108.232 200.568,108.566 199.5,109.5C 198.167,109.5 197.5,110.167 197.5,111.5C 196.17,117.463 195.504,123.796 195.5,130.5C 195.132,151.005 194.466,171.338 193.5,191.5C 193.333,164.498 193.5,137.498 194,110.5C 194.374,109.584 194.874,108.75 195.5,108C 198.202,107.16 200.868,106.327 203.5,105.5 Z"/></g>
<g><path style="opacity:1" fill="#efa73f" d="M 320.5,154.5 C 319.361,166.573 316.028,177.906 310.5,188.5C 310.671,185.203 310.005,184.869 308.5,187.5C 307.833,183.353 307.166,179.353 306.5,175.5C 309.468,165.362 311.468,155.028 312.5,144.5C 313.302,145.952 313.802,147.618 314,149.5C 314.333,148.5 314.667,147.5 315,146.5C 315.167,140.667 315.333,134.833 315.5,129C 315.699,118.908 314.365,109.075 311.5,99.5C 311.5,98.1667 311.5,96.8333 311.5,95.5C 312.5,95.5 313.5,95.5 314.5,95.5C 314.744,99.05 315.744,102.383 317.5,105.5C 314.538,108.388 315.205,109.721 319.5,109.5C 320.486,124.673 320.819,139.673 320.5,154.5 Z"/></g>
<g><path style="opacity:1" fill="#f27636" d="M 199.5,109.5 C 201.366,110.014 203.2,110.68 205,111.5C 206.465,110.67 207.965,110.504 209.5,111C 208.06,117.751 206.726,124.585 205.5,131.5C 203.817,135.258 203.151,139.258 203.5,143.5C 201.515,159.132 200.849,175.132 201.5,191.5C 200.5,191.5 199.5,191.5 198.5,191.5C 197.667,164.842 197.333,138.176 197.5,111.5C 197.5,110.167 198.167,109.5 199.5,109.5 Z"/></g>
<g><path style="opacity:1" fill="#ed7538" d="M 197.5,111.5 C 197.333,138.176 197.667,164.842 198.5,191.5C 199.5,191.5 200.5,191.5 201.5,191.5C 200.849,175.132 201.515,159.132 203.5,143.5C 204.09,168.933 203.423,194.266 201.5,219.5C 200.167,219.5 198.833,219.5 197.5,219.5C 197.285,221.179 197.952,222.179 199.5,222.5C 198.71,223.401 197.71,224.068 196.5,224.5C 195.791,223.596 194.791,223.263 193.5,223.5C 192.898,221.662 192.565,219.829 192.5,218C 193.448,217.517 194.448,217.351 195.5,217.5C 193.969,212.308 193.303,206.974 193.5,201.5C 189.4,201.763 185.4,201.43 181.5,200.5C 185.236,199.011 189.236,198.344 193.5,198.5C 193.5,196.167 193.5,193.833 193.5,191.5C 194.466,171.338 195.132,151.005 195.5,130.5C 195.504,123.796 196.17,117.463 197.5,111.5 Z"/></g>
<g><path style="opacity:1" fill="#d9703c" d="M 205.5,131.5 C 209.167,131.5 212.833,131.5 216.5,131.5C 213.302,132.648 210.135,133.982 207,135.5C 206.667,161.5 206.333,187.5 206,213.5C 205.16,217.5 202.994,220.5 199.5,222.5C 197.952,222.179 197.285,221.179 197.5,219.5C 198.833,219.5 200.167,219.5 201.5,219.5C 203.423,194.266 204.09,168.933 203.5,143.5C 203.151,139.258 203.817,135.258 205.5,131.5 Z"/></g>
<g><path style="opacity:1" fill="#c34734" d="M 128.5,67.5 C 120.354,77.7429 115.188,89.4095 113,102.5C 111.664,117.882 109.998,133.215 108,148.5C 106.087,159.965 102.254,170.632 96.5,180.5C 95.8614,179.903 95.528,179.07 95.5,178C 102.544,163.991 106.544,149.158 107.5,133.5C 107.673,124.113 108.506,114.78 110,105.5C 111.801,99.6283 112.968,93.6283 113.5,87.5C 116.952,82.6156 119.952,77.2823 122.5,71.5C 124.007,69.3096 126.007,67.9762 128.5,67.5 Z"/></g>
<g><path style="opacity:1" fill="#c84734" d="M 100.5,131.5 C 102.101,140.195 101.434,148.862 98.5,157.5C 97.8182,156.757 97.1515,156.091 96.5,155.5C 98.5916,147.497 99.9249,139.497 100.5,131.5 Z"/></g>
<g><path style="opacity:1" fill="#e34835" d="M 107.5,133.5 C 106.544,149.158 102.544,163.991 95.5,178C 95.528,179.07 95.8614,179.903 96.5,180.5C 94.9884,184.201 92.9884,187.534 90.5,190.5C 89.5489,189.081 89.2155,187.415 89.5,185.5C 87.8212,185.715 86.8212,185.048 86.5,183.5C 91.2196,174.676 94.5529,165.342 96.5,155.5C 97.1515,156.091 97.8182,156.757 98.5,157.5C 101.434,148.862 102.101,140.195 100.5,131.5C 100.137,120.888 101.137,110.555 103.5,100.5C 104.29,99.3915 104.79,98.0581 105,96.5C 105.167,97.3333 105.333,98.1667 105.5,99C 103.296,112.428 102.963,125.928 104.5,139.5C 105.318,136.893 105.818,134.226 106,131.5C 106.278,132.416 106.778,133.082 107.5,133.5 Z"/></g>
<g><path style="opacity:1" fill="#ce8240" d="M 251.5,119.5 C 254.167,119.5 256.833,119.5 259.5,119.5C 259.5,140.833 259.5,162.167 259.5,183.5C 260.833,183.5 262.167,183.5 263.5,183.5C 263.195,180.586 263.195,177.919 263.5,175.5C 264.812,177.743 265.478,180.41 265.5,183.5C 265.478,186.59 264.812,189.257 263.5,191.5C 262.833,186.167 262.167,186.167 261.5,191.5C 260.178,191.33 259.011,191.663 258,192.5C 255.974,192.085 254.474,191.085 253.5,189.5C 255.5,189.5 257.5,189.5 259.5,189.5C 259.5,188.167 259.5,186.833 259.5,185.5C 254.821,185.666 250.155,185.499 245.5,185C 246.737,184.768 247.737,184.268 248.5,183.5C 250.948,182.527 253.615,182.194 256.5,182.5C 256.833,162.156 256.5,141.822 255.5,121.5C 250.752,122.639 246.085,123.973 241.5,125.5C 240.833,124.833 240.167,124.167 239.5,123.5C 243.895,122.75 247.895,121.416 251.5,119.5 Z"/></g>
<g><path style="opacity:1" fill="#f48937" d="M 248.5,183.5 C 247.737,184.268 246.737,184.768 245.5,185C 250.155,185.499 254.821,185.666 259.5,185.5C 259.5,186.833 259.5,188.167 259.5,189.5C 257.5,189.5 255.5,189.5 253.5,189.5C 253.631,188.761 253.464,188.094 253,187.5C 251.27,187.509 249.437,187.842 247.5,188.5C 248.833,189.167 250.167,189.833 251.5,190.5C 250.167,191.5 248.833,192.5 247.5,193.5C 250.167,194.833 250.167,196.167 247.5,197.5C 249.457,200.568 249.957,203.901 249,207.5C 247.378,208.099 245.878,208.766 244.5,209.5C 236.01,209.683 232.676,205.683 234.5,197.5C 235.524,198.853 236.857,199.52 238.5,199.5C 238.277,197.658 237.943,195.825 237.5,194C 239.129,190.397 241.129,187.23 243.5,184.5C 245.042,183.699 246.708,183.366 248.5,183.5 Z"/></g>
<g><path style="opacity:1" fill="#cc4234" d="M 90.5,191.5 C 87.6295,195.873 84.9628,200.373 82.5,205C 83.1667,206 83.8333,207 84.5,208C 88.5621,209.448 92.3954,211.282 96,213.5C 96.6313,217.857 96.4647,222.191 95.5,226.5C 95.6284,228.955 96.6284,230.955 98.5,232.5C 99.087,233.767 99.087,234.767 98.5,235.5C 94.734,233.195 93.0673,229.861 93.5,225.5C 93.5,221.5 93.5,217.5 93.5,213.5C 87.6009,212.873 82.9342,210.207 79.5,205.5C 81.1667,202.167 82.8333,198.833 84.5,195.5C 86.0069,193.31 88.0069,191.976 90.5,191.5 Z"/></g>
<g><path style="opacity:1" fill="#e94233" d="M 86.5,183.5 C 86.8212,185.048 87.8212,185.715 89.5,185.5C 89.2155,187.415 89.5489,189.081 90.5,190.5C 90.5,190.833 90.5,191.167 90.5,191.5C 88.0069,191.976 86.0069,193.31 84.5,195.5C 82.8333,198.833 81.1667,202.167 79.5,205.5C 82.9342,210.207 87.6009,212.873 93.5,213.5C 93.5,217.5 93.5,221.5 93.5,225.5C 91.9217,224.934 90.5884,223.934 89.5,222.5C 90.1667,221.833 90.8333,221.167 91.5,220.5C 90.0493,219.094 88.7159,217.594 87.5,216C 84.5508,215.573 81.7174,214.739 79,213.5C 77.7441,213.648 76.5774,213.982 75.5,214.5C 73.9826,214.489 72.8159,213.823 72,212.5C 71.3333,209.833 71.3333,207.167 72,204.5C 76.3624,197.086 81.1957,190.086 86.5,183.5 Z"/></g>
<g><path style="opacity:1" fill="#f26f37" d="M 181.5,200.5 C 185.4,201.43 189.4,201.763 193.5,201.5C 193.303,206.974 193.969,212.308 195.5,217.5C 194.448,217.351 193.448,217.517 192.5,218C 192.565,219.829 192.898,221.662 193.5,223.5C 192.508,225.026 191.008,225.693 189,225.5C 184.602,225.466 180.102,225.133 175.5,224.5C 177.167,223.333 178.833,222.167 180.5,221C 176.777,219.032 176.777,217.365 180.5,216C 176.639,215.431 176.639,214.598 180.5,213.5C 176.5,212.167 176.5,210.833 180.5,209.5C 178.713,208.684 177.046,207.684 175.5,206.5C 178.897,205.77 180.897,203.77 181.5,200.5 Z"/></g>
<g><path style="opacity:1" fill="#e99c3e" d="M 306.5,175.5 C 307.166,179.353 307.833,183.353 308.5,187.5C 310.005,184.869 310.671,185.203 310.5,188.5C 305.494,200.176 299.661,211.509 293,222.5C 290.045,228.654 287.545,234.987 285.5,241.5C 284.778,241.082 284.278,240.416 284,239.5C 282.636,232.945 283.802,226.945 287.5,221.5C 288.156,219.547 288.489,217.547 288.5,215.5C 295.092,202.325 301.092,188.992 306.5,175.5 Z"/></g>
<g><path style="opacity:1" fill="#e56a39" d="M 181.5,200.5 C 180.897,203.77 178.897,205.77 175.5,206.5C 177.046,207.684 178.713,208.684 180.5,209.5C 176.5,210.833 176.5,212.167 180.5,213.5C 176.639,214.598 176.639,215.431 180.5,216C 176.777,217.365 176.777,219.032 180.5,221C 178.833,222.167 177.167,223.333 175.5,224.5C 180.102,225.133 184.602,225.466 189,225.5C 191.008,225.693 192.508,225.026 193.5,223.5C 194.791,223.263 195.791,223.596 196.5,224.5C 192.601,227.519 188.101,228.852 183,228.5C 170.152,228.792 165.486,222.792 169,210.5C 171.858,205.47 176.025,202.136 181.5,200.5 Z"/></g>
<g><path style="opacity:1" fill="#df863e" d="M 269.5,91.5 C 269.667,126.835 269.5,162.168 269,197.5C 261.595,211.484 250.429,215.651 235.5,210C 228.509,202.214 229.176,194.88 237.5,188C 239.692,187.074 241.692,185.907 243.5,184.5C 241.129,187.23 239.129,190.397 237.5,194C 237.943,195.825 238.277,197.658 238.5,199.5C 236.857,199.52 235.524,198.853 234.5,197.5C 232.676,205.683 236.01,209.683 244.5,209.5C 255.337,210.586 263.004,206.253 267.5,196.5C 268.167,161.5 268.833,126.5 269.5,91.5 Z"/></g>
<g><path style="opacity:1" fill="#f48f39" d="M 253.5,189.5 C 254.474,191.085 255.974,192.085 258,192.5C 259.011,191.663 260.178,191.33 261.5,191.5C 262.167,186.167 262.833,186.167 263.5,191.5C 263.082,192.222 262.416,192.722 261.5,193C 263.586,193.315 265.586,193.815 267.5,194.5C 267.5,195.167 267.5,195.833 267.5,196.5C 263.004,206.253 255.337,210.586 244.5,209.5C 245.878,208.766 247.378,208.099 249,207.5C 249.957,203.901 249.457,200.568 247.5,197.5C 250.167,196.167 250.167,194.833 247.5,193.5C 248.833,192.5 250.167,191.5 251.5,190.5C 250.167,189.833 248.833,189.167 247.5,188.5C 249.437,187.842 251.27,187.509 253,187.5C 253.464,188.094 253.631,188.761 253.5,189.5 Z"/></g>
<g><path style="opacity:1" fill="#e48f3d" d="M 288.5,215.5 C 288.489,217.547 288.156,219.547 287.5,221.5C 283.802,226.945 282.636,232.945 284,239.5C 284.278,240.416 284.778,241.082 285.5,241.5C 282.16,259.045 272.827,272.212 257.5,281C 251.243,282.317 244.909,282.817 238.5,282.5C 239.263,281.732 240.263,281.232 241.5,281C 236.547,280.569 236.547,279.403 241.5,277.5C 243.915,279.216 246.582,279.716 249.5,279C 248.833,278.667 248.167,278.333 247.5,278C 250.226,277.818 252.893,277.318 255.5,276.5C 250.167,275.833 244.833,275.167 239.5,274.5C 243.231,274.545 247.231,274.379 251.5,274C 247.975,273.821 244.641,273.321 241.5,272.5C 252.231,273.981 261.064,270.648 268,262.5C 274.363,246.56 281.196,230.893 288.5,215.5 Z"/></g>
<g><path style="opacity:1" fill="#ed7e39" d="M 228.5,240.5 C 228.66,238.801 228.494,237.134 228,235.5C 227.189,240.28 224.355,242.28 219.5,241.5C 219.334,245.514 219.501,249.514 220,253.5C 220.499,249.848 220.665,246.182 220.5,242.5C 222.099,242.232 223.432,242.566 224.5,243.5C 223.5,243.5 222.5,243.5 221.5,243.5C 220.731,255.463 225.398,264.63 235.5,271C 237.436,271.813 239.436,272.313 241.5,272.5C 244.641,273.321 247.975,273.821 251.5,274C 247.231,274.379 243.231,274.545 239.5,274.5C 244.833,275.167 250.167,275.833 255.5,276.5C 252.893,277.318 250.226,277.818 247.5,278C 248.167,278.333 248.833,278.667 249.5,279C 246.582,279.716 243.915,279.216 241.5,277.5C 236.547,279.403 236.547,280.569 241.5,281C 240.263,281.232 239.263,281.732 238.5,282.5C 231.413,281.373 225.58,278.04 221,272.5C 216.66,263.486 213.16,254.152 210.5,244.5C 204.121,243.138 202.121,239.471 204.5,233.5C 212.117,232.367 219.784,232.2 227.5,233C 229.646,235.357 229.979,237.857 228.5,240.5 Z"/></g>
<g><path style="opacity:1" fill="#df4734" d="M 93.5,225.5 C 93.0673,229.861 94.734,233.195 98.5,235.5C 99.087,234.767 99.087,233.767 98.5,232.5C 99.1174,232.611 99.6174,232.944 100,233.5C 100.497,236.146 100.664,238.813 100.5,241.5C 99.5,241.5 98.5,241.5 97.5,241.5C 98.2851,245.068 99.6184,248.401 101.5,251.5C 100.176,255.107 99.5093,259.107 99.5,263.5C 99.7272,268.897 100.394,274.231 101.5,279.5C 101.14,281.608 100.473,283.608 99.5,285.5C 100.894,287.646 101.56,289.979 101.5,292.5C 98.368,290.797 96.7014,288.13 96.5,284.5C 97.8333,281.167 97.8333,277.833 96.5,274.5C 99.3076,265.024 97.4742,256.69 91,249.5C 90.2378,245.668 90.7378,242.002 92.5,238.5C 91.5771,236.076 90.0771,234.076 88,232.5C 86.2462,228.309 86.4128,224.142 88.5,220C 88.0946,219.055 87.428,218.388 86.5,218C 82.6159,217.136 78.9492,215.97 75.5,214.5C 76.5774,213.982 77.7441,213.648 79,213.5C 81.7174,214.739 84.5508,215.573 87.5,216C 88.7159,217.594 90.0493,219.094 91.5,220.5C 90.8333,221.167 90.1667,221.833 89.5,222.5C 90.5884,223.934 91.9217,224.934 93.5,225.5 Z"/></g>
<g><path style="opacity:1" fill="#c77e4e" d="M 228.5,240.5 C 227.738,242.262 226.404,243.262 224.5,243.5C 223.432,242.566 222.099,242.232 220.5,242.5C 220.665,246.182 220.499,249.848 220,253.5C 219.501,249.514 219.334,245.514 219.5,241.5C 224.355,242.28 227.189,240.28 228,235.5C 228.494,237.134 228.66,238.801 228.5,240.5 Z"/></g>
<g><path style="opacity:1" fill="#af463a" d="M 96.5,274.5 C 97.8333,277.833 97.8333,281.167 96.5,284.5C 95.1667,281.167 95.1667,277.833 96.5,274.5 Z"/></g>
<g><path style="opacity:1" fill="#c54934" d="M 100.5,241.5 C 100.338,243.527 100.505,245.527 101,247.5C 103.442,250.048 105.108,253.048 106,256.5C 106.273,265.511 106.273,274.511 106,283.5C 106.374,284.416 106.874,285.25 107.5,286C 109.058,286.21 110.391,286.71 111.5,287.5C 118.752,288.347 126.752,288.847 135.5,289C 126.149,289.832 116.816,289.665 107.5,288.5C 106.5,287.5 105.5,286.5 104.5,285.5C 104.076,274.004 103.076,262.671 101.5,251.5C 99.6184,248.401 98.2851,245.068 97.5,241.5C 98.5,241.5 99.5,241.5 100.5,241.5 Z"/></g>
<g><path style="opacity:1" fill="#e95133" d="M 101.5,251.5 C 103.076,262.671 104.076,274.004 104.5,285.5C 105.5,286.5 106.5,287.5 107.5,288.5C 116.816,289.665 126.149,289.832 135.5,289C 126.752,288.847 118.752,288.347 111.5,287.5C 126.5,286.917 141.5,286.75 156.5,287C 160.491,287.498 164.158,288.665 167.5,290.5C 166.378,291.156 165.045,291.489 163.5,291.5C 158.237,289.62 152.903,289.287 147.5,290.5C 145.668,291.057 144.335,292.057 143.5,293.5C 140.15,293.335 136.817,293.502 133.5,294C 138.019,294.175 142.353,294.675 146.5,295.5C 133.843,296.395 121.176,296.561 108.5,296C 105.97,295.109 103.637,293.942 101.5,292.5C 101.56,289.979 100.894,287.646 99.5,285.5C 100.473,283.608 101.14,281.608 101.5,279.5C 100.394,274.231 99.7272,268.897 99.5,263.5C 99.5093,259.107 100.176,255.107 101.5,251.5 Z"/></g>
<g><path style="opacity:1" fill="#c55c3d" d="M 143.5,293.5 C 148.214,293.173 152.88,293.507 157.5,294.5C 157.137,295.183 156.804,295.85 156.5,296.5C 153.236,295.676 149.902,295.342 146.5,295.5C 142.353,294.675 138.019,294.175 133.5,294C 136.817,293.502 140.15,293.335 143.5,293.5 Z"/></g>
<g><path style="opacity:1" fill="#ef6737" d="M 167.5,290.5 C 168.71,290.932 169.71,291.599 170.5,292.5C 169.448,292.351 168.448,292.517 167.5,293C 172.871,295.861 177.538,299.694 181.5,304.5C 177.098,306.15 173.432,305.15 170.5,301.5C 169.893,301.624 169.56,301.957 169.5,302.5C 165.55,299.692 161.217,297.692 156.5,296.5C 156.804,295.85 157.137,295.183 157.5,294.5C 152.88,293.507 148.214,293.173 143.5,293.5C 144.335,292.057 145.668,291.057 147.5,290.5C 152.903,289.287 158.237,289.62 163.5,291.5C 165.045,291.489 166.378,291.156 167.5,290.5 Z"/></g>
<g><path style="opacity:1" fill="#e36f38" d="M 170.5,292.5 C 175.012,294.497 178.845,297.497 182,301.5C 194.856,321.894 202.022,344.227 203.5,368.5C 200.5,368.5 197.5,368.5 194.5,368.5C 192.336,353.179 188.836,338.179 184,323.5C 180.144,315.775 175.31,308.775 169.5,302.5C 169.56,301.957 169.893,301.624 170.5,301.5C 173.432,305.15 177.098,306.15 181.5,304.5C 177.538,299.694 172.871,295.861 167.5,293C 168.448,292.517 169.448,292.351 170.5,292.5 Z"/></g>
</svg>
